<svg width="348" height="348" viewBox="0 0 348 348" fill="none" xmlns="http://www.w3.org/2000/svg">
<g filter="url(#filter0_d_74_27)">
<path d="M12 73.7391C12 37.4324 41.4324 8 77.7391 8H270.261C306.568 8 336 37.4324 336 73.7391V266.261C336 302.568 306.568 332 270.261 332H77.7391C41.4324 332 12 302.568 12 266.261V73.7391Z" fill="#FFFBFB"/>
</g>
<path fill-rule="evenodd" clip-rule="evenodd" d="M77.7391 8C41.4324 8 12 37.4324 12 73.7391V266.261C12 302.568 41.4324 332 77.7391 332H270.261C306.568 332 336 302.568 336 266.261V73.7391C336 37.4324 306.568 8 270.261 8H77.7391Z" fill="url(#paint0_linear_74_27)"/>
<path d="M196.281 136.465L172.555 208.713V208.606C172.122 209.681 171.508 210.577 170.713 211.293C169.991 211.938 169.088 212.261 168.005 212.261C167.427 212.261 166.849 212.189 166.271 212.046C165.766 211.974 165.224 211.867 164.646 211.723H164.755C160.638 210.433 159.121 208.14 160.205 204.843L184.905 130.337C185.267 129.19 185.88 128.223 186.747 127.434C187.686 126.646 188.769 126.18 189.997 126.036C191.225 125.821 192.417 125.678 193.572 125.606C194.728 125.463 195.631 125.391 196.281 125.391C196.931 125.391 197.834 125.463 198.989 125.606C200.145 125.678 201.336 125.786 202.564 125.929C203.575 126.072 204.55 126.61 205.489 127.542C206.5 128.473 207.259 129.405 207.764 130.337C211.809 142.665 215.89 155.1 220.006 167.644C224.195 180.115 228.312 192.515 232.357 204.843C233.368 208.14 231.851 210.433 227.807 211.723C227.229 211.867 226.687 211.974 226.182 212.046C225.748 212.189 225.243 212.261 224.665 212.261C223.654 212.261 222.715 211.938 221.848 211.293C221.054 210.577 220.476 209.681 220.115 208.606V208.713L196.281 136.465ZM204.406 185.49C204.406 187.784 203.575 189.755 201.914 191.404C200.325 192.98 198.375 193.769 196.064 193.769C193.753 193.769 191.803 192.98 190.214 191.404C188.625 189.755 187.83 187.784 187.83 185.49C187.83 183.197 188.625 181.262 190.214 179.685C191.803 178.036 193.753 177.212 196.064 177.212C198.375 177.212 200.325 178.036 201.914 179.685C203.575 181.262 204.406 183.197 204.406 185.49Z" fill="white"/>
<path d="M276.949 162.16C278.827 162.16 280.777 162.555 282.799 163.343C284.822 164.131 286.772 165.171 288.649 166.461H288.541C290.419 167.751 291.863 169.507 292.875 171.729C293.886 173.951 294.391 176.495 294.391 179.362V194.091C294.391 199.897 292.441 204.233 288.541 207.1C286.663 208.462 284.713 209.537 282.691 210.326C280.741 211.042 278.827 211.401 276.949 211.401H253.332C251.454 211.401 249.504 211.042 247.482 210.326C245.531 209.537 243.618 208.462 241.74 207.1C237.84 204.233 235.89 199.897 235.89 194.091V186.996C235.89 183.627 238.02 181.943 242.281 181.943C246.615 181.943 248.782 183.627 248.782 186.996V193.231C248.782 195.095 249.323 196.779 250.407 198.284C251.49 199.79 253.368 200.542 256.04 200.542H274.241C276.913 200.542 278.791 199.79 279.874 198.284C280.958 196.779 281.499 195.095 281.499 193.231V180.222C281.499 178.431 280.958 176.782 279.874 175.277C278.791 173.7 276.913 172.912 274.241 172.912H253.332C249.576 172.912 245.712 171.55 241.74 168.826C237.84 165.816 235.89 161.48 235.89 155.817V143.023C235.89 140.156 236.395 137.648 237.406 135.497C238.417 133.276 239.862 131.484 241.74 130.122H241.631C243.509 128.903 245.459 127.9 247.482 127.112C249.504 126.323 251.454 125.929 253.332 125.929H276.949C278.827 125.929 280.777 126.323 282.799 127.112C284.822 127.9 286.772 128.903 288.649 130.122H288.541C290.419 131.484 291.863 133.276 292.875 135.497C293.886 137.648 294.391 140.156 294.391 143.023V149.367C294.391 152.735 292.225 154.42 287.891 154.42C283.63 154.42 281.499 152.735 281.499 149.367V143.991C281.499 142.199 280.958 140.551 279.874 139.045C278.791 137.54 276.913 136.788 274.241 136.788H256.04C253.368 136.788 251.49 137.54 250.407 139.045C249.323 140.551 248.782 142.199 248.782 143.991V154.957C248.782 156.821 249.323 158.505 250.407 160.01C251.49 161.444 253.368 162.16 256.04 162.16H276.949Z" fill="white"/>
<path d="M52.5652 130.878C52.5652 126.306 55.691 125.391 59.0016 125.391C62.3122 125.391 65.438 126.306 65.438 130.878V193.058C65.438 197.186 67.9499 200.374 72.3343 200.374H94.4021C98.5398 200.374 101.298 197.173 101.298 193.058V140.479C101.298 132.707 108.654 125.391 118.309 125.391H142.216C148.652 125.391 153.249 128.592 155.548 130.878C159.085 134.395 160.146 138.706 160.146 143.68V161.968C160.146 167.174 158.979 170.83 155.088 174.313C150.491 178.428 145.893 179.342 138.538 179.342H128.883C125.665 179.342 124.745 176.336 124.745 173.855C124.745 171.375 125.205 167.644 129.802 167.644H140.377C146.675 167.644 148.192 164.254 148.192 160.596V144.103C148.192 141.866 147.235 139.499 145.434 138.159C144.07 137.145 142.54 136.788 140.836 136.788H121.987C117.389 136.788 114.171 140.903 114.171 144.103V194.887C114.171 199.695 112.92 203.762 109.574 207.232C108.095 208.765 102.102 212.261 96.7007 212.261H70.0355C65.8905 212.261 62.8571 210.967 59.4614 208.603C54.8639 205.403 52.5652 200.801 52.5652 194.887V130.878Z" fill="white"/>
<defs>
<filter id="filter0_d_74_27" x="0" y="0" width="348" height="348" filterUnits="userSpaceOnUse" color-interpolation-filters="sRGB">
<feFlood flood-opacity="0" result="BackgroundImageFix"/>
<feColorMatrix in="SourceAlpha" type="matrix" values="0 0 0 0 0 0 0 0 0 0 0 0 0 0 0 0 0 0 127 0" result="hardAlpha"/>
<feOffset dy="4"/>
<feGaussianBlur stdDeviation="6"/>
<feComposite in2="hardAlpha" operator="out"/>
<feColorMatrix type="matrix" values="0 0 0 0 0 0 0 0 0 0 0 0 0 0 0 0 0 0 0.25 0"/>
<feBlend mode="normal" in2="BackgroundImageFix" result="effect1_dropShadow_74_27"/>
<feBlend mode="normal" in="SourceGraphic" in2="effect1_dropShadow_74_27" result="shape"/>
</filter>
<linearGradient id="paint0_linear_74_27" x1="53.0869" y1="107.783" x2="317.06" y2="321.902" gradientUnits="userSpaceOnUse">
<stop stop-color="#8224D5"/>
<stop offset="1" stop-color="#59DEFF"/>
</linearGradient>
</defs>
</svg>
