<svg width="91" height="91" viewBox="0 0 91 91" fill="none" xmlns="http://www.w3.org/2000/svg">
<path d="M0 18.4398C0 8.25578 8.25578 0 18.4398 0H72.442C82.6261 0 90.8818 8.25578 90.8818 18.4398V72.442C90.8818 82.6261 82.6261 90.8818 72.442 90.8818H18.4398C8.25578 90.8818 0 82.6261 0 72.442V18.4398Z" fill="#FFFBFB"/>
<path fill-rule="evenodd" clip-rule="evenodd" d="M72.442 3.95138H18.4398C10.4381 3.95138 3.95138 10.4381 3.95138 18.4398V72.442C3.95138 80.4438 10.4381 86.9304 18.4398 86.9304H72.442C80.4438 86.9304 86.9304 80.4438 86.9304 72.442V18.4398C86.9304 10.4381 80.4438 3.95138 72.442 3.95138ZM18.4398 0C8.25578 0 0 8.25578 0 18.4398V72.442C0 82.6261 8.25578 90.8818 18.4398 90.8818H72.442C82.6261 90.8818 90.8818 82.6261 90.8818 72.442V18.4398C90.8818 8.25578 82.6261 0 72.442 0H18.4398Z" fill="url(#paint0_linear_150_407)"/>
<path d="M27 31.8947C27 30.3158 28.0751 30 29.2137 30C30.3523 30 31.4273 30.3158 31.4273 31.8947V53.3684C31.4273 54.794 32.2913 55.8947 33.7992 55.8947H41.3889C42.812 55.8947 43.7607 54.7895 43.7607 53.3684V35.2105C43.7607 32.5263 46.2906 30 49.6111 30H59.3333C61.547 30 63.1282 31.1053 63.9188 31.8947C65.1351 33.1093 65.5 34.5981 65.5 36.3158V42.6316C65.5 44.4293 65.0988 45.6921 63.7607 46.8947C62.1795 48.3158 60.5983 48.6316 58.0684 48.6316H54.7479C53.641 48.6316 53.3248 47.5935 53.3248 46.7368C53.3248 45.8802 53.4829 44.5916 55.0641 44.5916H58.7009C60.867 44.5916 61.3889 43.421 61.3889 42.1579V36.462C61.3889 35.6893 61.0597 34.8721 60.4402 34.4093C59.9711 34.0589 59.4448 33.9357 58.859 33.9357H50.8761C49.2949 33.9357 48.188 35.3567 48.188 36.462V54C48.188 55.6603 47.7577 57.0649 46.6068 58.2632C46.0983 58.7926 44.0371 60 42.1795 60H33.0085C31.5829 60 30.5397 59.5532 29.3718 58.7368C27.7906 57.6316 27 56.0423 27 54V31.8947Z" fill="url(#paint1_linear_150_407)"/>
<defs>
<linearGradient id="paint0_linear_150_407" x1="11.5249" y1="27.989" x2="85.5691" y2="88.0495" gradientUnits="userSpaceOnUse">
<stop stop-color="#8224D5"/>
<stop offset="1" stop-color="#59DEFF"/>
</linearGradient>
<linearGradient id="paint1_linear_150_407" x1="27.1796" y1="23.9188" x2="118.263" y2="97.4978" gradientUnits="userSpaceOnUse">
<stop stop-color="#8224D5"/>
<stop offset="1" stop-color="#59DEFF"/>
</linearGradient>
</defs>
</svg>
